<?xml version="1.0" encoding="UTF-8" standalone="no"?>
<!DOCTYPE svg PUBLIC "-//W3C//DTD SVG 1.1//EN"
 "http://www.w3.org/Graphics/SVG/1.1/DTD/svg11.dtd">
<!-- Generated by graphviz version 2.47.3 (20210619.1520)
 -->
<!-- Title: dependencies Pages: 1 -->
<svg width="398pt" height="174pt"
 viewBox="0.00 0.00 398.00 173.80" xmlns="http://www.w3.org/2000/svg" xmlns:xlink="http://www.w3.org/1999/xlink">
<g id="graph0" class="graph" transform="scale(1 1) rotate(0) translate(4 169.8)">
<title>dependencies</title>
<polygon fill="white" stroke="transparent" points="-4,4 -4,-169.8 394,-169.8 394,4 -4,4"/>
<text text-anchor="middle" x="195" y="-8.2" font-family="sans-serif" font-size="14.00">dependencies</text>
<g id="clust1" class="cluster">
<title>cluster_DepartmentModule</title>
<polygon fill="none" stroke="black" stroke-dasharray="1,5" points="8,-32.8 8,-157.8 382,-157.8 382,-32.8 8,-32.8"/>
</g>
<g id="clust2" class="cluster">
<title>cluster_DepartmentModule_declarations</title>
<polygon fill="none" stroke="black" points="210,-40.8 210,-92.8 374,-92.8 374,-40.8 210,-40.8"/>
</g>
<g id="clust4" class="cluster">
<title>cluster_DepartmentModule_imports</title>
<polygon fill="none" stroke="black" points="16,-40.8 16,-92.8 202,-92.8 202,-40.8 16,-40.8"/>
</g>
<!-- DepartmentComponent -->
<g id="node1" class="node">
<title>DepartmentComponent</title>
<polygon fill="#ffffb3" stroke="black" points="365.92,-84.8 218.08,-84.8 218.08,-48.8 365.92,-48.8 365.92,-84.8"/>
<text text-anchor="middle" x="292" y="-62.6" font-family="Times,serif" font-size="14.00">DepartmentComponent</text>
</g>
<!-- DepartmentModule -->
<g id="node2" class="node">
<title>DepartmentModule</title>
<polygon fill="#8dd3c7" stroke="black" points="262.63,-149.8 259.63,-153.8 238.63,-153.8 235.63,-149.8 137.37,-149.8 137.37,-113.8 262.63,-113.8 262.63,-149.8"/>
<text text-anchor="middle" x="200" y="-127.6" font-family="Times,serif" font-size="14.00">DepartmentModule</text>
</g>
<!-- DepartmentComponent&#45;&gt;DepartmentModule -->
<g id="edge1" class="edge">
<title>DepartmentComponent&#45;&gt;DepartmentModule</title>
<path fill="none" stroke="black" d="M240.55,-84.91C240.55,-84.91 240.55,-103.79 240.55,-103.79"/>
<polygon fill="black" stroke="black" points="237.05,-103.79 240.55,-113.79 244.05,-103.79 237.05,-103.79"/>
</g>
<!-- DepartmentRoutingModule -->
<g id="node3" class="node">
<title>DepartmentRoutingModule</title>
<polygon fill="#8dd3c7" stroke="black" points="194.25,-84.8 191.25,-88.8 170.25,-88.8 167.25,-84.8 23.75,-84.8 23.75,-48.8 194.25,-48.8 194.25,-84.8"/>
<text text-anchor="middle" x="109" y="-62.6" font-family="Times,serif" font-size="14.00">DepartmentRoutingModule</text>
</g>
<!-- DepartmentRoutingModule&#45;&gt;DepartmentModule -->
<g id="edge2" class="edge">
<title>DepartmentRoutingModule&#45;&gt;DepartmentModule</title>
<path fill="none" stroke="black" d="M165.78,-84.91C165.78,-84.91 165.78,-103.79 165.78,-103.79"/>
<polygon fill="black" stroke="black" points="162.28,-103.79 165.78,-113.79 169.28,-103.79 162.28,-103.79"/>
</g>
</g>
</svg>
