<?xml version="1.0" encoding="UTF-8" standalone="no"?>
<!DOCTYPE svg PUBLIC "-//W3C//DTD SVG 1.1//EN"
 "http://www.w3.org/Graphics/SVG/1.1/DTD/svg11.dtd">
<!-- Generated by graphviz version 2.47.3 (20210619.1520)
 -->
<!-- Title: dependencies Pages: 1 -->
<svg width="380pt" height="174pt"
 viewBox="0.00 0.00 380.00 173.80" xmlns="http://www.w3.org/2000/svg" xmlns:xlink="http://www.w3.org/1999/xlink">
<g id="graph0" class="graph" transform="scale(1 1) rotate(0) translate(4 169.8)">
<title>dependencies</title>
<polygon fill="white" stroke="transparent" points="-4,4 -4,-169.8 376,-169.8 376,4 -4,4"/>
<text text-anchor="middle" x="186" y="-8.2" font-family="sans-serif" font-size="14.00">dependencies</text>
<g id="clust1" class="cluster">
<title>cluster_EmployeeModule</title>
<polygon fill="none" stroke="black" stroke-dasharray="1,5" points="8,-32.8 8,-157.8 364,-157.8 364,-32.8 8,-32.8"/>
</g>
<g id="clust4" class="cluster">
<title>cluster_EmployeeModule_imports</title>
<polygon fill="none" stroke="black" points="178,-40.8 178,-92.8 356,-92.8 356,-40.8 178,-40.8"/>
</g>
<g id="clust2" class="cluster">
<title>cluster_EmployeeModule_declarations</title>
<polygon fill="none" stroke="black" points="16,-40.8 16,-92.8 170,-92.8 170,-40.8 16,-40.8"/>
</g>
<!-- EmployeeComponent -->
<g id="node1" class="node">
<title>EmployeeComponent</title>
<polygon fill="#ffffb3" stroke="black" points="162.1,-84.8 23.9,-84.8 23.9,-48.8 162.1,-48.8 162.1,-84.8"/>
<text text-anchor="middle" x="93" y="-62.6" font-family="Times,serif" font-size="14.00">EmployeeComponent</text>
</g>
<!-- EmployeeModule -->
<g id="node2" class="node">
<title>EmployeeModule</title>
<polygon fill="#8dd3c7" stroke="black" points="238.31,-149.8 235.31,-153.8 214.31,-153.8 211.31,-149.8 121.69,-149.8 121.69,-113.8 238.31,-113.8 238.31,-149.8"/>
<text text-anchor="middle" x="180" y="-127.6" font-family="Times,serif" font-size="14.00">EmployeeModule</text>
</g>
<!-- EmployeeComponent&#45;&gt;EmployeeModule -->
<g id="edge1" class="edge">
<title>EmployeeComponent&#45;&gt;EmployeeModule</title>
<path fill="none" stroke="black" d="M141.95,-84.91C141.95,-84.91 141.95,-103.79 141.95,-103.79"/>
<polygon fill="black" stroke="black" points="138.45,-103.79 141.95,-113.79 145.45,-103.79 138.45,-103.79"/>
</g>
<!-- EmployeeRoutingModule -->
<g id="node3" class="node">
<title>EmployeeRoutingModule</title>
<polygon fill="#8dd3c7" stroke="black" points="347.93,-84.8 344.93,-88.8 323.93,-88.8 320.93,-84.8 186.07,-84.8 186.07,-48.8 347.93,-48.8 347.93,-84.8"/>
<text text-anchor="middle" x="267" y="-62.6" font-family="Times,serif" font-size="14.00">EmployeeRoutingModule</text>
</g>
<!-- EmployeeRoutingModule&#45;&gt;EmployeeModule -->
<g id="edge2" class="edge">
<title>EmployeeRoutingModule&#45;&gt;EmployeeModule</title>
<path fill="none" stroke="black" d="M212.22,-84.91C212.22,-84.91 212.22,-103.79 212.22,-103.79"/>
<polygon fill="black" stroke="black" points="208.72,-103.79 212.22,-113.79 215.72,-103.79 208.72,-103.79"/>
</g>
</g>
</svg>
