<?xml version="1.0" encoding="UTF-8" standalone="no"?>
<!DOCTYPE svg PUBLIC "-//W3C//DTD SVG 1.1//EN"
 "http://www.w3.org/Graphics/SVG/1.1/DTD/svg11.dtd">
<!-- Generated by graphviz version 2.47.3 (20210619.1520)
 -->
<!-- Title: dependencies Pages: 1 -->
<svg width="1284pt" height="323pt"
 viewBox="0.00 0.00 1284.00 322.80" xmlns="http://www.w3.org/2000/svg" xmlns:xlink="http://www.w3.org/1999/xlink">
<g id="graph0" class="graph" transform="scale(1 1) rotate(0) translate(4 318.8)">
<title>dependencies</title>
<polygon fill="white" stroke="transparent" points="-4,4 -4,-318.8 1280,-318.8 1280,4 -4,4"/>
<text text-anchor="middle" x="638" y="-8.2" font-family="sans-serif" font-size="14.00">dependencies</text>
<g id="clust1" class="cluster">
<title>cluster_AppModule</title>
<polygon fill="none" stroke="black" stroke-dasharray="1,5" points="110,-108.8 110,-306.8 522,-306.8 522,-108.8 110,-108.8"/>
</g>
<g id="clust2" class="cluster">
<title>cluster_AppModule_declarations</title>
<polygon fill="none" stroke="black" points="392,-116.8 392,-168.8 514,-168.8 514,-116.8 392,-116.8"/>
</g>
<g id="clust4" class="cluster">
<title>cluster_AppModule_imports</title>
<polygon fill="none" stroke="black" points="118,-116.8 118,-168.8 384,-168.8 384,-116.8 118,-116.8"/>
</g>
<g id="clust6" class="cluster">
<title>cluster_AppModule_bootstrap</title>
<polygon fill="none" stroke="black" points="250,-246.8 250,-298.8 374,-298.8 374,-246.8 250,-246.8"/>
</g>
<g id="clust14" class="cluster">
<title>cluster_DepartmentModule</title>
<polygon fill="none" stroke="black" stroke-dasharray="1,5" points="530,-32.8 530,-168.8 904,-168.8 904,-32.8 530,-32.8"/>
</g>
<g id="clust15" class="cluster">
<title>cluster_DepartmentModule_declarations</title>
<polygon fill="none" stroke="black" points="732,-40.8 732,-92.8 896,-92.8 896,-40.8 732,-40.8"/>
</g>
<g id="clust17" class="cluster">
<title>cluster_DepartmentModule_imports</title>
<polygon fill="none" stroke="black" points="538,-40.8 538,-92.8 724,-92.8 724,-40.8 538,-40.8"/>
</g>
<g id="clust27" class="cluster">
<title>cluster_EmployeeModule</title>
<polygon fill="none" stroke="black" stroke-dasharray="1,5" points="912,-32.8 912,-168.8 1268,-168.8 1268,-32.8 912,-32.8"/>
</g>
<g id="clust28" class="cluster">
<title>cluster_EmployeeModule_declarations</title>
<polygon fill="none" stroke="black" points="1106,-40.8 1106,-92.8 1260,-92.8 1260,-40.8 1106,-40.8"/>
</g>
<g id="clust30" class="cluster">
<title>cluster_EmployeeModule_imports</title>
<polygon fill="none" stroke="black" points="920,-40.8 920,-92.8 1098,-92.8 1098,-40.8 920,-40.8"/>
</g>
<g id="clust40" class="cluster">
<title>cluster_ProductModule</title>
<polygon fill="none" stroke="black" stroke-dasharray="1,5" points="8,-32.8 8,-100.8 336,-100.8 336,-32.8 8,-32.8"/>
</g>
<g id="clust41" class="cluster">
<title>cluster_ProductModule_declarations</title>
<polygon fill="none" stroke="black" points="188,-40.8 188,-92.8 328,-92.8 328,-40.8 188,-40.8"/>
</g>
<g id="clust43" class="cluster">
<title>cluster_ProductModule_imports</title>
<polygon fill="none" stroke="black" points="16,-40.8 16,-92.8 180,-92.8 180,-40.8 16,-40.8"/>
</g>
<!-- AppComponent -->
<g id="node1" class="node">
<title>AppComponent</title>
<polygon fill="#ffffb3" stroke="black" points="505.94,-160.8 400.06,-160.8 400.06,-124.8 505.94,-124.8 505.94,-160.8"/>
<text text-anchor="middle" x="453" y="-138.6" font-family="Times,serif" font-size="14.00">AppComponent</text>
</g>
<!-- AppModule -->
<g id="node2" class="node">
<title>AppModule</title>
<polygon fill="#8dd3c7" stroke="black" points="353.66,-225.8 350.66,-229.8 329.66,-229.8 326.66,-225.8 270.34,-225.8 270.34,-189.8 353.66,-189.8 353.66,-225.8"/>
<text text-anchor="middle" x="312" y="-203.6" font-family="Times,serif" font-size="14.00">AppModule</text>
</g>
<!-- AppComponent&#45;&gt;AppModule -->
<g id="edge1" class="edge">
<title>AppComponent&#45;&gt;AppModule</title>
<path fill="none" stroke="black" d="M453,-160.91C453,-180.14 453,-207.8 453,-207.8 453,-207.8 363.92,-207.8 363.92,-207.8"/>
<polygon fill="black" stroke="black" points="363.92,-204.3 353.92,-207.8 363.92,-211.3 363.92,-204.3"/>
</g>
<!-- AppComponent  -->
<g id="node5" class="node">
<title>AppComponent </title>
<polygon fill="#80b1d3" stroke="black" points="366.44,-290.8 257.56,-290.8 257.56,-254.8 366.44,-254.8 366.44,-290.8"/>
<text text-anchor="middle" x="312" y="-268.6" font-family="Times,serif" font-size="14.00">AppComponent </text>
</g>
<!-- AppModule&#45;&gt;AppComponent  -->
<g id="edge4" class="edge">
<title>AppModule&#45;&gt;AppComponent </title>
<path fill="none" stroke="black" stroke-dasharray="1,5" d="M312,-225.91C312,-225.91 312,-244.79 312,-244.79"/>
<polygon fill="black" stroke="black" points="308.5,-244.79 312,-254.79 315.5,-244.79 308.5,-244.79"/>
</g>
<!-- AppRoutingModule -->
<g id="node3" class="node">
<title>AppRoutingModule</title>
<polygon fill="#8dd3c7" stroke="black" points="376.27,-160.8 373.27,-164.8 352.27,-164.8 349.27,-160.8 247.73,-160.8 247.73,-124.8 376.27,-124.8 376.27,-160.8"/>
<text text-anchor="middle" x="312" y="-138.6" font-family="Times,serif" font-size="14.00">AppRoutingModule</text>
</g>
<!-- AppRoutingModule&#45;&gt;AppModule -->
<g id="edge2" class="edge">
<title>AppRoutingModule&#45;&gt;AppModule</title>
<path fill="none" stroke="black" d="M312,-160.91C312,-160.91 312,-179.79 312,-179.79"/>
<polygon fill="black" stroke="black" points="308.5,-179.79 312,-189.79 315.5,-179.79 308.5,-179.79"/>
</g>
<!-- ProductModule -->
<g id="node4" class="node">
<title>ProductModule</title>
<polygon fill="#8dd3c7" stroke="black" points="229.6,-160.8 226.6,-164.8 205.6,-164.8 202.6,-160.8 126.4,-160.8 126.4,-124.8 229.6,-124.8 229.6,-160.8"/>
<text text-anchor="middle" x="178" y="-138.6" font-family="Times,serif" font-size="14.00">ProductModule</text>
</g>
<!-- ProductModule&#45;&gt;AppModule -->
<g id="edge3" class="edge">
<title>ProductModule&#45;&gt;AppModule</title>
<path fill="none" stroke="black" d="M178,-160.91C178,-180.14 178,-207.8 178,-207.8 178,-207.8 260.34,-207.8 260.34,-207.8"/>
<polygon fill="black" stroke="black" points="260.34,-211.3 270.34,-207.8 260.34,-204.3 260.34,-211.3"/>
</g>
<!-- DepartmentComponent -->
<g id="node6" class="node">
<title>DepartmentComponent</title>
<polygon fill="#ffffb3" stroke="black" points="887.92,-84.8 740.08,-84.8 740.08,-48.8 887.92,-48.8 887.92,-84.8"/>
<text text-anchor="middle" x="814" y="-62.6" font-family="Times,serif" font-size="14.00">DepartmentComponent</text>
</g>
<!-- DepartmentModule -->
<g id="node7" class="node">
<title>DepartmentModule</title>
<polygon fill="#8dd3c7" stroke="black" points="784.63,-160.8 781.63,-164.8 760.63,-164.8 757.63,-160.8 659.37,-160.8 659.37,-124.8 784.63,-124.8 784.63,-160.8"/>
<text text-anchor="middle" x="722" y="-138.6" font-family="Times,serif" font-size="14.00">DepartmentModule</text>
</g>
<!-- DepartmentComponent&#45;&gt;DepartmentModule -->
<g id="edge5" class="edge">
<title>DepartmentComponent&#45;&gt;DepartmentModule</title>
<path fill="none" stroke="black" d="M762.55,-84.81C762.55,-84.81 762.55,-114.65 762.55,-114.65"/>
<polygon fill="black" stroke="black" points="759.05,-114.65 762.55,-124.65 766.05,-114.65 759.05,-114.65"/>
</g>
<!-- DepartmentRoutingModule -->
<g id="node8" class="node">
<title>DepartmentRoutingModule</title>
<polygon fill="#8dd3c7" stroke="black" points="716.25,-84.8 713.25,-88.8 692.25,-88.8 689.25,-84.8 545.75,-84.8 545.75,-48.8 716.25,-48.8 716.25,-84.8"/>
<text text-anchor="middle" x="631" y="-62.6" font-family="Times,serif" font-size="14.00">DepartmentRoutingModule</text>
</g>
<!-- DepartmentRoutingModule&#45;&gt;DepartmentModule -->
<g id="edge6" class="edge">
<title>DepartmentRoutingModule&#45;&gt;DepartmentModule</title>
<path fill="none" stroke="black" d="M687.78,-84.81C687.78,-84.81 687.78,-114.65 687.78,-114.65"/>
<polygon fill="black" stroke="black" points="684.28,-114.65 687.78,-124.65 691.28,-114.65 684.28,-114.65"/>
</g>
<!-- EmployeeComponent -->
<g id="node9" class="node">
<title>EmployeeComponent</title>
<polygon fill="#ffffb3" stroke="black" points="1252.1,-84.8 1113.9,-84.8 1113.9,-48.8 1252.1,-48.8 1252.1,-84.8"/>
<text text-anchor="middle" x="1183" y="-62.6" font-family="Times,serif" font-size="14.00">EmployeeComponent</text>
</g>
<!-- EmployeeModule -->
<g id="node10" class="node">
<title>EmployeeModule</title>
<polygon fill="#8dd3c7" stroke="black" points="1154.31,-160.8 1151.31,-164.8 1130.31,-164.8 1127.31,-160.8 1037.69,-160.8 1037.69,-124.8 1154.31,-124.8 1154.31,-160.8"/>
<text text-anchor="middle" x="1096" y="-138.6" font-family="Times,serif" font-size="14.00">EmployeeModule</text>
</g>
<!-- EmployeeComponent&#45;&gt;EmployeeModule -->
<g id="edge7" class="edge">
<title>EmployeeComponent&#45;&gt;EmployeeModule</title>
<path fill="none" stroke="black" d="M1134.05,-84.81C1134.05,-84.81 1134.05,-114.65 1134.05,-114.65"/>
<polygon fill="black" stroke="black" points="1130.55,-114.65 1134.05,-124.65 1137.55,-114.65 1130.55,-114.65"/>
</g>
<!-- EmployeeRoutingModule -->
<g id="node11" class="node">
<title>EmployeeRoutingModule</title>
<polygon fill="#8dd3c7" stroke="black" points="1089.93,-84.8 1086.93,-88.8 1065.93,-88.8 1062.93,-84.8 928.07,-84.8 928.07,-48.8 1089.93,-48.8 1089.93,-84.8"/>
<text text-anchor="middle" x="1009" y="-62.6" font-family="Times,serif" font-size="14.00">EmployeeRoutingModule</text>
</g>
<!-- EmployeeRoutingModule&#45;&gt;EmployeeModule -->
<g id="edge8" class="edge">
<title>EmployeeRoutingModule&#45;&gt;EmployeeModule</title>
<path fill="none" stroke="black" d="M1063.78,-84.81C1063.78,-84.81 1063.78,-114.65 1063.78,-114.65"/>
<polygon fill="black" stroke="black" points="1060.28,-114.65 1063.78,-124.65 1067.28,-114.65 1060.28,-114.65"/>
</g>
<!-- ProductComponent -->
<g id="node12" class="node">
<title>ProductComponent</title>
<polygon fill="#ffffb3" stroke="black" points="320.38,-84.8 195.62,-84.8 195.62,-48.8 320.38,-48.8 320.38,-84.8"/>
<text text-anchor="middle" x="258" y="-62.6" font-family="Times,serif" font-size="14.00">ProductComponent</text>
</g>
<!-- ProductComponent&#45;&gt;ProductModule -->
<g id="edge9" class="edge">
<title>ProductComponent&#45;&gt;ProductModule</title>
<path fill="none" stroke="black" d="M212.55,-84.81C212.55,-84.81 212.55,-114.65 212.55,-114.65"/>
<polygon fill="black" stroke="black" points="209.05,-114.65 212.55,-124.65 216.05,-114.65 209.05,-114.65"/>
</g>
<!-- ProductRoutingModule -->
<g id="node13" class="node">
<title>ProductRoutingModule</title>
<polygon fill="#8dd3c7" stroke="black" points="172.22,-84.8 169.22,-88.8 148.22,-88.8 145.22,-84.8 23.78,-84.8 23.78,-48.8 172.22,-48.8 172.22,-84.8"/>
<text text-anchor="middle" x="98" y="-62.6" font-family="Times,serif" font-size="14.00">ProductRoutingModule</text>
</g>
<!-- ProductRoutingModule&#45;&gt;ProductModule -->
<g id="edge10" class="edge">
<title>ProductRoutingModule&#45;&gt;ProductModule</title>
<path fill="none" stroke="black" d="M149.28,-84.81C149.28,-84.81 149.28,-114.65 149.28,-114.65"/>
<polygon fill="black" stroke="black" points="145.78,-114.65 149.28,-124.65 152.78,-114.65 145.78,-114.65"/>
</g>
</g>
</svg>
